<?xml version="1.0" encoding="UTF-8" standalone="no"?>
<svg
  viewBox="0 0 18 18"
  style="stroke: currentColor;fill: currentColor; width: 1rem;">
  <path
     d="m 7.0847456,1.3627456 a 0.768,0.768 0 0 1 0.08,0.858 7.208,7.208 0 0 0 -0.878,3.46 c 0,4.0210016 3.2780012,7.2770024 7.3180024,7.2770024 0.527,0 1.04,-0.055 1.533,-0.16 a 0.787,0.787 0 0 1 0.81,0.316 0.733,0.733 0 0 1 -0.031,0.893 8.349,8.349 0 0 1 -6.4880016,3.078 c -4.6100008,0 -8.3440008,-3.714 -8.3440008,-8.2900024 0,-3.444 2.114,-6.398 5.124,-7.65 a 0.752,0.752 0 0 1 0.876,0.218 z" />
  <path
     d="m 11.878748,4.2327456 a 0.217,0.217 0 0 1 0.412,0 l 0.387,1.162 c 0.173,0.518 0.579,0.924 1.097,1.097 l 1.162,0.387 a 0.217,0.217 0 0 1 0,0.412 l -1.162,0.387 a 1.734,1.734 0 0 0 -1.097,1.097 l -0.387,1.1620022 a 0.217,0.217 0 0 1 -0.412,0 l -0.387,-1.1620022 a 1.734,1.734 0 0 0 -1.097,-1.097 l -1.1620022,-0.387 a 0.217,0.217 0 0 1 0,-0.412 l 1.1620022,-0.387 a 1.734,1.734 0 0 0 1.097,-1.097 z m 3.069,-3.049 a 0.145,0.145 0 0 1 0.274,0 l 0.258,0.774 c 0.115,0.346 0.386,0.617 0.732,0.732 l 0.774,0.258 a 0.145,0.145 0 0 1 0,0.274 l -0.774,0.258 a 1.156,1.156 0 0 0 -0.732,0.732 l -0.258,0.774 a 0.145,0.145 0 0 1 -0.274,0 l -0.258,-0.774 a 1.156,1.156 0 0 0 -0.732,-0.732 l -0.774,-0.258 a 0.145,0.145 0 0 1 0,-0.274 l 0.774,-0.258 c 0.346,-0.115 0.617,-0.386 0.732,-0.732 l 0.258,-0.773 z" />
</svg>
